{"title":"30 Degrees In February S02E01 720p WEBRip x264-TheRival","uid":15042714,"size":783578939,"categoryP":"video","categoryS":"hd___tv_shows","magnet":"?xt=urn:btih:fa65274e809c96462c8d73bde757eb2ec698fa77&amp;dn=30+Degrees+In+February+S02E01+720p+WEBRip+x264-TheRival&amp;tr=udp%3A%2F%2Ftracker.leechers-paradise.org%3A6969&amp;tr=udp%3A%2F%2Fzer0day.ch%3A1337&amp;tr=udp%3A%2F%2Fopen.demonii.com%3A1337&amp;tr=udp%3A%2F%2Ftracker.coppersurfer.tk%3A6969&amp;tr=udp%3A%2F%2Fexodus.desync.com%3A6969","seeders":1,"leechers":0,"uploader":"TheRival","files":2,"time":1466626908,"description":"Screens: \nhttp://extraimago.com/image/aXxs \nhttp://extraimago.com/image/aXx7 \nhttp://extraimago.com/image/aXxc\r\n\r\nVideo\r\nID : 1\r\nFormat : AVC\r\nFormat/Info : Advanced Video Codec\r\nFormat profile :   \r\nFormat settings, CABAC : Yes\r\nFormat settings, ReFrames : 2 frames\r\nFormat settings, GOP : M=1, N=24\r\nCodec ID : avc1\r\nCodec ID/Info : Advanced Video Coding\r\nDuration : 58mn 33s\r\nBit rate mode : Variable\r\nBit rate : 1 653 Kbps\r\nMaximum bit rate : 2 550 Kbps\r\nWidth : 1 280 pixels\r\nHeight : 720 pixels\r\nDisplay aspect ratio : 16:9\r\nFrame rate mode : Constant\r\nFrame rate : 25.000 fps\r\nColor space : YUV\r\nChroma subsampling : 4:2:0\r\nBit depth : 8 bits\r\nScan type : Progressive\r\nBits/(Pixel*Frame) : 0.072\r\nStream size : 692 MiB (93%)\r\nEncoded date : UTC 2016-06-22 17:38:45\r\nTagged date : UTC 2016-06-22 17:46:57\r\nColor primaries : BT.709\r\nTransfer characteristics : BT.709\r\nMatrix coefficients : BT.709\r\n\r\nAudio\r\nID : 2\r\nFormat : AAC\r\nFormat/Info : Advanced Audio Codec\r\nFormat profile : LC\r\nCodec ID : 40\r\nDuration : 58mn 33s\r\nBit rate mode : Variable\r\nBit rate : 128 Kbps\r\nMaximum bit rate : 132 Kbps\r\nChannel(s) : 2 channels\r\nChannel positions : Front: L R\r\nSampling rate : 48.0 KHz\r\nFrame rate : 46.875 fps (1024 spf)\r\nCompression mode : Lossy\r\nStream size : 53.6 MiB (7%)\r\nTitle : English (aac 2.0)\r\nLanguage : English\r\nDefault : Yes\r\nAlternate group : 1","torrent":{"xt":"urn:btih:fa65274e809c96462c8d73bde757eb2ec698fa77","amp;dn":"30+Degrees+In+February+S02E01+720p+WEBRip+x264-TheRival","amp;tr":["udp%3A%2F%2Ftracker.leechers-paradise.org%3A6969","udp%3A%2F%2Fzer0day.ch%3A1337","udp%3A%2F%2Fopen.demonii.com%3A1337","udp%3A%2F%2Ftracker.coppersurfer.tk%3A6969","udp%3A%2F%2Fexodus.desync.com%3A6969"],"infoHash":"fa65274e809c96462c8d73bde757eb2ec698fa77","infoHashBuffer":{"type":"Buffer","data":[250,101,39,78,128,156,150,70,44,141,115,189,231,87,235,46,198,152,250,119]},"announce":[],"urlList":[]}}